<?xml version="1.0" encoding="UTF-8" standalone="no"?>
<svg
   xmlns:dc="http://purl.org/dc/elements/1.1/"
   xmlns:cc="http://creativecommons.org/ns#"
   xmlns:rdf="http://www.w3.org/1999/02/22-rdf-syntax-ns#"
   xmlns:svg="http://www.w3.org/2000/svg"
   xmlns="http://www.w3.org/2000/svg"
   xmlns:xlink="http://www.w3.org/1999/xlink"
   viewBox="0 0 1549.1639 159.13823"
   height="159.13823"
   width="1549.1639"
   xml:space="preserve"
   id="svg2"
   version="1.1"><metadata
     id="metadata8"><rdf:RDF><cc:Work
         rdf:about=""><dc:format>image/svg+xml</dc:format><dc:type
           rdf:resource="http://purl.org/dc/dcmitype/StillImage" /><dc:title></dc:title></cc:Work></rdf:RDF></metadata><defs
     id="defs6"><clipPath
       id="clipPath18"
       clipPathUnits="userSpaceOnUse"><path
         id="path16"
         d="m 195.739,244.237 c 3.414,-1.267 6.579,-3.386 9.499,-6.36 v 0 c 5.78,-6.001 7.267,-13.351 4.459,-22.051 v 0 l -30.393,-89.112 h 108.77 c 17.84,0 31.548,3.192 41.129,9.579 v 0 c 9.36,6.166 16.546,16.601 21.556,31.302 v 0 l 12.141,35.761 c 5.009,14.701 4.982,25.161 -0.083,31.384 v 0 c -5.232,6.331 -16.765,9.497 -34.605,9.497 v 0 z m 49.719,-29.236 h 64.006 c 7.929,0 12.938,-1.433 15.032,-4.296 v 0 c 2.256,-3.027 1.982,-8.616 -0.826,-16.764 v 0 L 318.219,178 c -2.754,-8.148 -6.305,-13.737 -10.654,-16.764 v 0 c -4.02,-2.864 -9.993,-4.295 -17.922,-4.295 v 0 h -64.006 z" /></clipPath><linearGradient
       id="linearGradient30"
       spreadMethod="pad"
       gradientTransform="matrix(1098.1262,0,0,-1098.1262,209.75488,185.47517)"
       gradientUnits="userSpaceOnUse"
       y2="0"
       x2="1"
       y1="0"
       x1="0"><stop
         id="stop24"
         offset="0"
         style="stop-opacity:1;stop-color:#8f00f0" /><stop
         id="stop26"
         offset="0.53"
         style="stop-opacity:1;stop-color:#c878ff" /><stop
         id="stop28"
         offset="1"
         style="stop-opacity:1;stop-color:#8f00f0" /></linearGradient><clipPath
       id="clipPath40"
       clipPathUnits="userSpaceOnUse"><path
         id="path38"
         d="m 386.768,244.237 c 3.522,-1.267 6.744,-3.441 9.663,-6.525 v 0 c 5.781,-6.11 7.185,-13.626 4.212,-22.546 v 0 l -30.228,-88.452 h 130.656 l 9.663,28.244 h -94.647 l 6.442,18.83 h 93.16 l 8.342,24.365 h -93.243 l 6.442,18.83 h 92.582 l 9.332,27.254 z" /></clipPath><linearGradient
       id="linearGradient52"
       spreadMethod="pad"
       gradientTransform="matrix(1098.1262,0,0,-1098.1262,209.75488,185.47517)"
       gradientUnits="userSpaceOnUse"
       y2="0"
       x2="1"
       y1="0"
       x1="0"><stop
         id="stop46"
         offset="0"
         style="stop-opacity:1;stop-color:#8f00f0" /><stop
         id="stop48"
         offset="0.53"
         style="stop-opacity:1;stop-color:#c878ff" /><stop
         id="stop50"
         offset="1"
         style="stop-opacity:1;stop-color:#8f00f0" /></linearGradient><clipPath
       id="clipPath62"
       clipPathUnits="userSpaceOnUse"><path
         id="path60"
         d="m 555.58,244.237 c 3.468,-1.267 6.661,-3.414 9.579,-6.442 v 0 c 5.782,-6.111 7.213,-13.545 4.296,-22.298 v 0 l -30.311,-88.783 h 36.092 l 13.627,40.055 h 87.049 l 9.332,27.337 h -87.049 l 7.516,21.886 h 86.636 l 9.662,28.245 z" /></clipPath><linearGradient
       id="linearGradient74"
       spreadMethod="pad"
       gradientTransform="matrix(1098.1262,0,0,-1098.1262,209.75488,185.47517)"
       gradientUnits="userSpaceOnUse"
       y2="0"
       x2="1"
       y1="0"
       x1="0"><stop
         id="stop68"
         offset="0"
         style="stop-opacity:1;stop-color:#8f00f0" /><stop
         id="stop70"
         offset="0.53"
         style="stop-opacity:1;stop-color:#c878ff" /><stop
         id="stop72"
         offset="1"
         style="stop-opacity:1;stop-color:#8f00f0" /></linearGradient><clipPath
       id="clipPath84"
       clipPathUnits="userSpaceOnUse"><path
         id="path82"
         d="m 714.067,244.32 c 3.744,-1.268 6.992,-3.607 9.746,-7.021 v 0 c 5.56,-6.937 5.918,-15.967 1.073,-27.089 v 0 c -1.102,-2.423 -2.092,-4.927 -2.973,-7.515 v 0 l -11.727,-34.356 c -5.451,-15.913 -4.791,-27.063 1.981,-33.449 v 0 c 5.782,-5.451 17.262,-8.176 34.44,-8.176 v 0 h 56.904 c 15.911,0 28.081,2.999 36.504,9.001 v 0 c 5.561,3.965 10.82,10.819 15.774,20.565 v 0 h -93.324 c -8.094,0 -12.94,1.762 -14.536,5.286 v 0 c -1.487,3.138 -0.744,9.057 2.23,17.755 v 0 l 4.212,12.39 c 2.697,7.873 5.973,13.489 9.828,16.848 v 0 c 4.734,4.129 11.451,6.194 20.151,6.194 v 0 h 89.444 c 2.257,9.581 1.734,16.242 -1.569,19.987 v 0 c -5.617,6.385 -19.547,9.58 -41.79,9.58 v 0 z" /></clipPath><linearGradient
       id="linearGradient96"
       spreadMethod="pad"
       gradientTransform="matrix(1098.1262,0,0,-1098.1262,209.75488,185.51668)"
       gradientUnits="userSpaceOnUse"
       y2="0"
       x2="1"
       y1="0"
       x1="0"><stop
         id="stop90"
         offset="0"
         style="stop-opacity:1;stop-color:#8f00f0" /><stop
         id="stop92"
         offset="0.53"
         style="stop-opacity:1;stop-color:#c878ff" /><stop
         id="stop94"
         offset="1"
         style="stop-opacity:1;stop-color:#8f00f0" /></linearGradient><clipPath
       id="clipPath106"
       clipPathUnits="userSpaceOnUse"><path
         id="path104"
         d="m 889.403,244.568 c 3.635,-1.212 6.799,-3.469 9.497,-6.773 v 0 c 5.506,-6.662 6.112,-15.335 1.818,-26.015 v 0 c -1.488,-3.304 -2.698,-6.277 -3.634,-8.92 v 0 l -11.727,-34.439 c -5.451,-15.968 -4.792,-27.145 1.981,-33.531 v 0 c 5.836,-5.451 17.371,-8.176 34.605,-8.176 v 0 h 56.656 c 17.232,0 30.64,2.725 40.221,8.176 v 0 c 11.12,6.386 19.408,17.563 24.859,33.531 v 0 l 11.81,34.439 c 5.396,15.967 4.707,27.143 -2.064,33.531 v 0 c -5.781,5.452 -17.29,8.177 -34.522,8.177 v 0 z" /></clipPath><linearGradient
       xlink:href="#linearGradient96"
       id="linearGradient118"
       spreadMethod="pad"
       gradientTransform="matrix(1464.1682,0,0,1464.1682,279.67317,233.57907)"
       gradientUnits="userSpaceOnUse"
       y2="0"
       x2="1"
       y1="0"
       x1="0"><stop
         id="stop112"
         offset="0"
         style="stop-opacity:1;stop-color:#8f00f0" /><stop
         id="stop114"
         offset="0.53"
         style="stop-opacity:1;stop-color:#c878ff" /><stop
         id="stop116"
         offset="1"
         style="stop-opacity:1;stop-color:#8f00f0" /></linearGradient><clipPath
       id="clipPath128"
       clipPathUnits="userSpaceOnUse"><path
         id="path126"
         d="m 1080.019,244.237 c 3.468,-1.267 6.634,-3.414 9.497,-6.442 v 0 c 5.836,-6.057 7.295,-13.49 4.378,-22.298 v 0 l -30.311,-88.783 h 36.009 l 40.137,117.523 z" /></clipPath><linearGradient
       id="linearGradient140"
       spreadMethod="pad"
       gradientTransform="matrix(1098.1262,0,0,-1098.1262,209.75488,185.47517)"
       gradientUnits="userSpaceOnUse"
       y2="0"
       x2="1"
       y1="0"
       x1="0"><stop
         id="stop134"
         offset="0"
         style="stop-opacity:1;stop-color:#8f00f0" /><stop
         id="stop136"
         offset="0.53"
         style="stop-opacity:1;stop-color:#c878ff" /><stop
         id="stop138"
         offset="1"
         style="stop-opacity:1;stop-color:#8f00f0" /></linearGradient><clipPath
       id="clipPath150"
       clipPathUnits="userSpaceOnUse"><path
         id="path148"
         d="m 1165.415,237.961 c 5.835,-6.112 7.239,-13.627 4.212,-22.548 v 0 l -29.898,-88.699 h 36.009 l 29.155,85.396 h 0.247 l 38.569,-85.396 h 55.831 l 40.137,117.523 h -36.008 l -29.154,-85.397 h -0.33 l -38.57,85.397 -79.781,0.248 c 3.523,-1.267 6.717,-3.442 9.581,-6.524" /></clipPath><linearGradient
       id="linearGradient162"
       spreadMethod="pad"
       gradientTransform="matrix(1098.1262,0,0,-1098.1262,209.75488,185.5992)"
       gradientUnits="userSpaceOnUse"
       y2="0"
       x2="1"
       y1="0"
       x1="0"><stop
         id="stop156"
         offset="0"
         style="stop-opacity:1;stop-color:#8f00f0" /><stop
         id="stop158"
         offset="0.53"
         style="stop-opacity:1;stop-color:#c878ff" /><stop
         id="stop160"
         offset="1"
         style="stop-opacity:1;stop-color:#8f00f0" /></linearGradient><clipPath
       id="clipPath172"
       clipPathUnits="userSpaceOnUse"><path
         id="path170"
         d="M 0,360.825 H 1556.091 V 0 H 0 Z" /></clipPath><linearGradient
       spreadMethod="pad"
       y2="0"
       x2="1"
       y1="0"
       x1="0"
       gradientTransform="matrix(1098.1262,0,0,-1098.1262,209.75488,185.51668)"
       gradientUnits="userSpaceOnUse"
       id="linearGradient4754"
       xlink:href="#linearGradient96" /></defs><g
     transform="matrix(1.3333333,0,0,-1.3333333,-238.07199,327.09023)"
     id="g10"><g
       id="g12"><g
         clip-path="url(#clipPath18)"
         id="g14"><g
           id="g20"><g
             id="g22"><path
               id="path32"
               style="fill:url(#linearGradient30);stroke:none"
               d="m 195.739,244.237 c 3.414,-1.267 6.579,-3.386 9.499,-6.36 v 0 c 5.78,-6.001 7.267,-13.351 4.459,-22.051 v 0 l -30.393,-89.112 h 108.77 c 17.84,0 31.548,3.192 41.129,9.579 v 0 c 9.36,6.166 16.546,16.601 21.556,31.302 v 0 l 12.141,35.761 c 5.009,14.701 4.982,25.161 -0.083,31.384 v 0 c -5.232,6.331 -16.765,9.497 -34.605,9.497 v 0 z m 49.719,-29.236 h 64.006 c 7.929,0 12.938,-1.433 15.032,-4.296 v 0 c 2.256,-3.027 1.982,-8.616 -0.826,-16.764 v 0 L 318.219,178 c -2.754,-8.148 -6.305,-13.737 -10.654,-16.764 v 0 c -4.02,-2.864 -9.993,-4.295 -17.922,-4.295 v 0 h -64.006 z" /></g></g></g></g><g
       id="g34"><g
         clip-path="url(#clipPath40)"
         id="g36"><g
           id="g42"><g
             id="g44"><path
               id="path54"
               style="fill:url(#linearGradient52);stroke:none"
               d="m 386.768,244.237 c 3.522,-1.267 6.744,-3.441 9.663,-6.525 v 0 c 5.781,-6.11 7.185,-13.626 4.212,-22.546 v 0 l -30.228,-88.452 h 130.656 l 9.663,28.244 h -94.647 l 6.442,18.83 h 93.16 l 8.342,24.365 h -93.243 l 6.442,18.83 h 92.582 l 9.332,27.254 z" /></g></g></g></g><g
       id="g56"><g
         clip-path="url(#clipPath62)"
         id="g58"><g
           id="g64"><g
             id="g66"><path
               id="path76"
               style="fill:url(#linearGradient74);stroke:none"
               d="m 555.58,244.237 c 3.468,-1.267 6.661,-3.414 9.579,-6.442 v 0 c 5.782,-6.111 7.213,-13.545 4.296,-22.298 v 0 l -30.311,-88.783 h 36.092 l 13.627,40.055 h 87.049 l 9.332,27.337 h -87.049 l 7.516,21.886 h 86.636 l 9.662,28.245 z" /></g></g></g></g><g
       id="g78"><g
         clip-path="url(#clipPath84)"
         id="g80"><g
           id="g86"><g
             id="g88"><path
               id="path98"
               style="fill:url(#linearGradient4754);stroke:none"
               d="m 714.067,244.32 c 3.744,-1.268 6.992,-3.607 9.746,-7.021 v 0 c 5.56,-6.937 5.918,-15.967 1.073,-27.089 v 0 c -1.102,-2.423 -2.092,-4.927 -2.973,-7.515 v 0 l -11.727,-34.356 c -5.451,-15.913 -4.791,-27.063 1.981,-33.449 v 0 c 5.782,-5.451 17.262,-8.176 34.44,-8.176 v 0 h 56.904 c 15.911,0 28.081,2.999 36.504,9.001 v 0 c 5.561,3.965 10.82,10.819 15.774,20.565 v 0 h -93.324 c -8.094,0 -12.94,1.762 -14.536,5.286 v 0 c -1.487,3.138 -0.744,9.057 2.23,17.755 v 0 l 4.212,12.39 c 2.697,7.873 5.973,13.489 9.828,16.848 v 0 c 4.734,4.129 11.451,6.194 20.151,6.194 v 0 h 89.444 c 2.257,9.581 1.734,16.242 -1.569,19.987 v 0 c -5.617,6.385 -19.547,9.58 -41.79,9.58 v 0 z" /></g></g></g></g><g
       id="g100"><g
         clip-path="url(#clipPath106)"
         id="g102"><g
           id="g108"><g
             id="g110"><path
               id="path120"
               transform="matrix(0.75000002,0,0,-0.75000002,0,360.82501)"
               d="m 1185.8711,155.00977 c 4.8467,1.616 9.0648,4.62396 12.6621,9.02929 7.3413,8.88267 8.1492,20.4475 2.4238,34.6875 -1.984,4.40534 -3.5977,8.36858 -4.8457,11.89258 l -15.6347,45.91992 c -7.268,21.29067 -6.3901,36.19237 2.6406,44.70703 7.7813,7.268 23.1619,10.90235 46.1406,10.90235 h 75.541 c 22.976,0 40.8523,-3.63435 53.627,-10.90235 14.8266,-8.51466 25.8785,-23.41636 33.1465,-44.70703 l 15.7461,-45.91992 c 7.1946,-21.28933 6.276,-36.1897 -2.752,-44.70703 -7.708,-7.26933 -23.0533,-10.90234 -46.0293,-10.90234 z m 110.0215,15.42968 c 8.729,-0.22811 17.0798,2.79107 25.0156,8.99024 13.7707,12.708 16.6941,27.8636 10.0781,45.46093 6.3574,-3.21999 12.4178,-6.29058 18.5938,-9.41992 -0.3734,-0.60533 -0.674,-1.06892 -0.9473,-1.54492 -2.4613,-4.27733 -1.3338,-9.89972 2.4649,-12.51172 4.3266,-2.97466 8.6878,-0.74253 10.5332,2.10547 2.0773,3.21067 2.2761,6.56549 0.6601,10.02149 -0.2693,0.57466 -0.6278,1.10458 -0.9531,1.66992 6.116,-0.51867 9.2922,3.7169 9.6016,8.6289 0.192,3.06134 -0.9384,5.806 -3.4571,7.75 -3.8306,2.95867 -9.0606,1.6149 -11.4726,-2.89843 -0.3014,-0.564 -0.533,-1.16519 -0.9024,-1.97852 -13.78,6.84267 -27.487,13.78651 -41.2617,20.70117 -1.6587,-0.92133 -3.2804,-1.8232 -5.0098,-2.7832 -0.8466,0.22133 -1.7337,0.45068 -2.9843,0.77734 12.76,7.212 25.2394,14.26387 37.8554,21.39453 1.3067,-2.55866 3.0583,-4.53446 5.9903,-5.09179 1.7093,-0.32534 3.2694,0.0671 4.7734,0.84179 3,1.54667 5.0464,6.05704 3.3184,10.09571 -1.6827,3.92933 -5.0239,5.43555 -10.0079,4.21289 0.3254,0.54266 0.5659,0.92245 0.7833,1.31445 2.0413,3.65733 2.069,7.42435 0.3437,11.15234 -1.08,2.33334 -2.9018,4.05895 -5.6484,3.98829 -2.7867,-0.0707 -4.6154,-1.82024 -5.75,-4.24024 -1.264,-2.69733 -1.3982,-5.522 -0.6036,-8.38867 0.188,-0.68 0.4114,-1.34973 0.6661,-2.17773 -32.6307,-18.42267 -65.2187,-36.82287 -97.8907,-55.26954 -0.508,0.85334 -0.8973,1.68901 -1.4453,2.40235 -3.816,4.95466 -10.923,4.13669 -13.539,-1.55664 -1.4547,-3.168 -1.2231,-6.27624 0.5742,-9.24024 1.8173,-2.99466 4.5607,-4.18089 8.2207,-3.85156 -1.7413,-2.23067 -2.3126,-4.62844 -2.1152,-7.28711 0.228,-3.04933 2.5682,-7.11194 6.8496,-7.83594 2.356,-0.39733 4.4087,0.26991 6.1914,1.75391 3.468,2.88933 4.179,8.21672 1.8457,12.13672 -0.252,0.424 -0.5749,0.80401 -1.0176,1.41601 4.824,2.728 9.6063,5.43303 14.709,8.31836 -2.8027,-11.112 -1.704,-21.43915 4.2226,-31.03515 3.828,-6.19734 8.9742,-11.09118 15.6035,-14.08985 5.5005,-2.488 10.8739,-3.79477 16.1114,-3.93164 z m 14.9199,18.4336 c -1.6981,0.0138 -3.4239,0.56798 -4.9727,1.70898 -2.66,1.96 -4.4021,6.60635 -0.8554,10.40235 1.6186,1.73199 3.6054,2.52807 6.1347,2.4414 1.5574,0.15467 3.0774,-0.45924 4.4707,-1.39258 3.5507,-2.37866 4.3174,-7.45433 1.1934,-10.625 -1.65,-1.67625 -3.7875,-2.55297 -5.9707,-2.53515 z m -26.1152,0.0117 c -2.3413,-0.0977 -4.4732,0.82204 -6.2032,2.74804 -2.22,2.47334 -2.5413,5.97252 -0.2773,8.86719 1.556,1.98933 3.6138,2.97585 6.5898,2.97852 1.5054,0.136 3.2555,-0.42767 4.7715,-1.625 2.04,-1.612 3.1284,-3.71867 2.791,-6.36133 -0.4053,-3.172 -2.3155,-5.23792 -5.2675,-6.16992 -0.82,-0.259 -1.6239,-0.40494 -2.4043,-0.4375 z m 37.9179,20.01367 c -0.6771,-0.024 -1.3767,0.0584 -2.0742,0.16992 -1.1627,0.18533 -2.1737,0.75332 -2.3457,2.08398 0.3667,1.232 1.4557,1.55734 2.3731,2 -1.0507,10.64534 -10.9264,20.53323 -24.2637,20.22657 -7.0467,-0.16267 -13.0592,-3.01717 -17.7285,-8.42383 -2.9107,-3.36934 -4.7177,-7.23482 -5.291,-11.66016 1.1506,-0.612 2.3821,-0.90313 2.4648,-2.3418 -0.508,-1.33733 -1.6601,-1.75458 -2.8867,-1.91992 -1.44,-0.19333 -2.8855,-0.1093 -4.1055,0.83203 -0.9493,0.73067 -0.9385,1.75249 0.021,2.53516 0.4307,0.35067 0.9495,0.58985 1.4082,0.86719 0.936,8.16666 4.9003,14.42423 11.8203,18.60156 9.0173,5.444 18.4607,5.82756 27.9141,1.21289 7.076,-3.45333 11.7089,-9.0808 13.5156,-16.85547 0.2413,-1.036 0.3407,-2.10627 0.498,-3.09961 1.1454,-0.672 2.3773,-1.18256 1.752,-2.86523 -0.8792,-0.98667 -1.9438,-1.3233 -3.0723,-1.36328 z m -40.2988,40.61914 c 4.3347,2.456 8.5543,4.84858 13.0449,7.39258 -14.392,7.22933 -28.4596,14.29545 -42.6836,21.43945 0.5334,0.64933 0.9878,1.16108 1.3985,1.70508 2.4906,3.29866 2.2962,9.48396 -1.6758,12.39062 -3.2293,2.364 -7.6443,1.90106 -10.4336,-1.34961 -2.6507,-3.08933 -2.8985,-6.57103 -1.1172,-10.20703 0.276,-0.564 0.8139,-1.04991 0.3926,-1.89258 -0.252,-0.0493 -0.5833,-0.15863 -0.918,-0.16797 -4.348,-0.11999 -7.6619,-2.9003 -8.3633,-7.18164 -0.46,-2.804 0.1028,-5.41555 1.8868,-7.71289 3.1573,-4.06533 8.882,-4.06131 11.998,0.0547 0.6413,0.848 1.1335,1.81021 1.8281,2.93555 11.5014,-5.77867 23.0026,-11.55825 34.6426,-17.40625 z"
               style="fill:url(#linearGradient118);fill-opacity:1;stroke:none;stroke-width:1.33333325" /></g></g></g></g><g
       id="g122"><g
         clip-path="url(#clipPath128)"
         id="g124"><g
           id="g130"><g
             id="g132"><path
               id="path142"
               style="fill:url(#linearGradient140);stroke:none"
               d="m 1080.019,244.237 c 3.468,-1.267 6.634,-3.414 9.497,-6.442 v 0 c 5.836,-6.057 7.295,-13.49 4.378,-22.298 v 0 l -30.311,-88.783 h 36.009 l 40.137,117.523 z" /></g></g></g></g><g
       id="g144"><g
         clip-path="url(#clipPath150)"
         id="g146"><g
           id="g152"><g
             id="g154"><path
               id="path164"
               style="fill:url(#linearGradient162);stroke:none"
               d="m 1165.415,237.961 c 5.835,-6.112 7.239,-13.627 4.212,-22.548 v 0 l -29.898,-88.699 h 36.009 l 29.155,85.396 h 0.247 l 38.569,-85.396 h 55.831 l 40.137,117.523 h -36.008 l -29.154,-85.397 h -0.33 l -38.57,85.397 -79.781,0.248 c 3.523,-1.267 6.717,-3.442 9.581,-6.524" /></g></g></g></g><g
       id="g166"><g
         clip-path="url(#clipPath172)"
         id="g168"><g
           id="text176"
           style="font-variant:normal;font-weight:normal;font-stretch:normal;font-size:40.16199875px;font-family:'NCAA Army Black Knight';-inkscape-font-specification:NCAAArmyBlackKnight;writing-mode:lr-tb;fill:#000000;fill-opacity:1;fill-rule:nonzero;stroke:none"
           transform="matrix(1,0,0,-1,655.1821,369.8735)"
           aria-label="defcoin"><path
             id="path4712"
             d="m 18.237626,-18.629833 v -11.883873 h 3.608305 V 0 h -3.608305 v -3.294539 q -1.1374,1.9610351 -2.882721,2.92194233 -1.725711,0.94129685 -4.157395,0.94129685 -3.9809008,0 -6.4910258,-3.17687688 -2.4905145,-3.1768768 -2.4905145,-8.3540093 0,-5.177133 2.4905145,-8.35401 2.510125,-3.176877 6.4910258,-3.176877 2.431684,0 4.157395,0.960908 1.745321,0.941297 2.882721,2.902332 z m -12.2956897,7.667647 q 0,3.9809011 1.6276592,6.2557018 1.6472694,2.2551903 4.5103805,2.2551903 2.863111,0 4.510381,-2.2551903 1.647269,-2.2748007 1.647269,-6.2557018 0,-3.980901 -1.647269,-6.236092 -1.64727,-2.2748 -4.510381,-2.2748 -2.8631111,0 -4.5103805,2.2748 -1.6276592,2.255191 -1.6276592,6.236092 z" /><path
             id="path4714"
             d="m 67.954574,-11.883873 v 1.764932 H 51.364217 q 0.235325,3.7259666 2.235581,5.6870017 2.019866,1.9414247 5.60856,1.9414247 2.078697,0 4.020122,-0.5098691 1.961035,-0.5098691 3.882849,-1.5296074 V -1.11779 q -1.941424,0.82363474 -3.980901,1.25506246 -2.039476,0.43142772 -4.137784,0.43142772 -5.255574,0 -8.334399,-3.05921478 -3.059215,-3.0592147 -3.059215,-8.2755684 0,-5.392846 2.902332,-8.550113 2.921942,-3.176877 7.863751,-3.176877 4.431939,0 7.000895,2.863112 2.588566,2.843501 2.588566,7.746088 z m -3.608304,-1.058959 q -0.03922,-2.961163 -1.66688,-4.726094 -1.608049,-1.764932 -4.275057,-1.764932 -3.019994,0 -4.843756,1.706101 -1.804152,1.7061 -2.078697,4.804536 z" /><path
             id="path4716"
             d="m 100.34852,-30.513706 v 3.000384 h -3.451419 q -1.941424,0 -2.706228,0.784414 -0.745193,0.784414 -0.745193,2.82389 v 1.941425 h 5.941936 v 2.80428 H 93.44568 V 0 h -3.627915 v -19.159313 h -3.451422 v -2.80428 h 3.451422 V -23.4932 q 0,-3.667136 1.7061,-5.334016 1.706101,-1.68649 5.412457,-1.68649 z" /><path
             id="path4718"
             d="m 143.7114,-21.120348 v 3.37298 q -1.52961,-0.843245 -3.07883,-1.255062 -1.5296,-0.431428 -3.09843,-0.431428 -3.51025,0 -5.45168,2.23558 -1.94142,2.21597 -1.94142,6.236092 0,4.0201218 1.94142,6.2557018 1.94143,2.2159696 5.45168,2.2159696 1.56883,0 3.09843,-0.4118173 1.54922,-0.4314278 3.07883,-1.2746729 v 3.33375971 q -1.51,0.70597263 -3.13766,1.05895895 -1.60805,0.35298632 -3.43181,0.35298632 -4.96142,0 -7.88336,-3.11804578 -2.92194,-3.1180458 -2.92194,-8.4128404 0,-5.373236 2.94155,-8.452061 2.96116,-3.078826 8.09908,-3.078826 1.66688,0 3.25531,0.352987 1.58844,0.333376 3.07883,1.019738 z" /><path
             id="path4720"
             d="m 178.02419,-19.433858 q -2.90233,0 -4.58882,2.274801 -1.68649,2.25519 -1.68649,6.196871 0,3.9416804 1.66688,6.2164811 1.68649,2.2551903 4.60843,2.2551903 2.88272,0 4.56921,-2.2748007 1.68649,-2.2748007 1.68649,-6.1968707 0,-3.90246 -1.68649,-6.177261 -1.68649,-2.294411 -4.56921,-2.294411 z m 0,-3.059215 q 4.70648,0 7.3931,3.059215 2.68662,3.059215 2.68662,8.471672 0,5.3928463 -2.68662,8.4716714 -2.68662,3.05921478 -7.3931,3.05921478 -4.72609,0 -7.41271,-3.05921478 -2.66701,-3.0788251 -2.66701,-8.4716714 0,-5.412457 2.66701,-8.471672 2.68662,-3.059215 7.41271,-3.059215 z" /><path
             id="path4722"
             d="m 213.77181,-21.963593 h 3.60831 V 0 h -3.60831 z m 0,-8.550113 h 3.60831 v 4.569212 h -3.60831 z" /><path
             id="path4724"
             d="M 250.10196,-13.256597 V 0 h -3.60831 v -13.138935 q 0,-3.118046 -1.21584,-4.667264 -1.21584,-1.549217 -3.64753,-1.549217 -2.92194,0 -4.60843,1.862983 -1.68649,1.862983 -1.68649,5.079081 V 0 h -3.62791 v -21.963593 h 3.62791 v 3.412201 q 1.29428,-1.980645 3.03961,-2.961163 1.76493,-0.980518 4.05934,-0.980518 3.7848,0 5.72622,2.353243 1.94143,2.333631 1.94143,6.883233 z" /></g><g
           transform="translate(983.3389,208.2554)"
           id="g178" /><g
           transform="translate(961.7377,173.6865)"
           id="g182" /></g></g></g></svg>